<?xml version="1.0" encoding="UTF-8"?>
<svg xmlns="http://www.w3.org/2000/svg" xmlns:xlink="http://www.w3.org/1999/xlink" width="512.8pt" height="549.4pt" viewBox="0 0 512.8 549.4" version="1.1">
<defs>
<clipPath id="clip1">
  <path d="M 0 370 L 512.800781 370 L 512.800781 476 L 0 476 Z M 0 370 "/>
</clipPath>
<clipPath id="clip2">
  <path d="M 73 505 L 440 505 L 440 549.398438 L 73 549.398438 Z M 73 505 "/>
</clipPath>
</defs>
<g id="surface1">
<path style="fill-rule:evenodd;fill:rgb(94.139099%,48.631287%,0%);fill-opacity:1;stroke-width:2.16;stroke-linecap:butt;stroke-linejoin:miter;stroke:rgb(94.139099%,48.631287%,0%);stroke-opacity:1;stroke-miterlimit:4;" d="M 1569.296875 3775.757813 L 3263.789063 3775.757813 L 3263.789063 1957.710938 L 1569.296875 1957.671875 Z M 1569.296875 3775.757813 " transform="matrix(0.1,0,0,-0.1,0,549.4)"/>
<path style="fill-rule:evenodd;fill:rgb(94.139099%,48.631287%,0%);fill-opacity:1;stroke-width:2.16;stroke-linecap:butt;stroke-linejoin:miter;stroke:rgb(94.139099%,48.631287%,0%);stroke-opacity:1;stroke-miterlimit:4;" d="M 1571.09375 3775.757813 L 2420.664063 4686.304688 L 1570.898438 5492.710938 L 729.648438 4686.304688 Z M 1571.09375 3775.757813 " transform="matrix(0.1,0,0,-0.1,0,549.4)"/>
<path style="fill-rule:evenodd;fill:rgb(94.139099%,48.631287%,0%);fill-opacity:1;stroke-width:2.16;stroke-linecap:butt;stroke-linejoin:miter;stroke:rgb(94.139099%,48.631287%,0%);stroke-opacity:1;stroke-miterlimit:4;" d="M 3261.289063 3775.757813 L 4110.898438 4686.304688 L 3261.054688 5492.710938 L 2419.84375 4686.304688 Z M 3261.289063 3775.757813 " transform="matrix(0.1,0,0,-0.1,0,549.4)"/>
<g clip-path="url(#clip1)" clip-rule="nonzero">
<path style=" stroke:none;fill-rule:evenodd;fill:rgb(10.594177%,9.812927%,9.423828%);fill-opacity:1;" d="M 0.015625 387.753906 L 22.582031 387.753906 C 28.6875 387.753906 33.390625 388.226563 36.664063 389.1875 C 39.953125 390.148438 42.421875 391.53125 44.054688 393.328125 C 45.714844 395.144531 46.839844 397.34375 47.417969 399.90625 C 47.996094 402.484375 48.289063 406.464844 48.289063 411.863281 L 48.289063 419.367188 C 48.289063 424.867188 47.726563 428.886719 46.601563 431.394531 C 45.457031 433.921875 43.367188 435.84375 40.335938 437.210938 C 37.296875 438.550781 33.339844 439.226563 28.453125 439.226563 L 22.4375 439.222656 L 22.4375 473.925781 L 0.015625 473.929688 Z M 22.4375 402.484375 L 22.4375 424.421875 C 23.070313 424.453125 23.617188 424.472656 24.070313 424.472656 C 26.140625 424.472656 27.558594 423.964844 28.359375 422.964844 C 29.15625 421.945313 29.558594 419.839844 29.558594 416.660156 L 29.554688 409.574219 C 29.558594 406.628906 29.101563 404.703125 28.175781 403.835938 C 27.253906 402.941406 25.34375 402.488281 22.4375 402.484375 Z M 82.457031 387.753906 L 82.457031 473.925781 L 60.035156 473.929688 L 60.035156 387.753906 Z M 141.871094 387.753906 L 141.871094 404.996094 L 128.570313 404.992188 L 128.570313 473.925781 L 106.171875 473.925781 L 106.171875 404.996094 L 92.90625 404.992188 L 92.90625 387.753906 Z M 186.628906 387.753906 L 199.460938 473.925781 L 176.511719 473.929688 L 175.398438 458.429688 L 167.351563 458.429688 L 166.027344 473.929688 L 142.824219 473.925781 L 154.214844 387.753906 Z M 174.765625 443.171875 C 173.628906 433.410156 172.492188 421.347656 171.351563 407.007813 C 169.078125 423.492188 167.660156 435.535156 167.097656 443.171875 Z M 189.339844 370.617188 L 171.820313 385.046875 L 161.007813 385.046875 L 170.390625 370.621094 Z M 260.003906 419.476563 L 237.601563 419.476563 L 237.601563 411.644531 C 237.601563 406.71875 237.382813 403.628906 236.964844 402.378906 C 236.527344 401.140625 235.527344 400.523438 233.929688 400.523438 C 232.53125 400.523438 231.605469 401.050781 231.097656 402.128906 C 230.605469 403.175781 230.351563 405.921875 230.351563 410.316406 L 230.351563 451.671875 C 230.351563 455.539063 230.605469 458.085938 231.097656 459.320313 C 231.605469 460.539063 232.589844 461.15625 234.078125 461.15625 C 235.714844 461.15625 236.820313 460.464844 237.421875 459.089844 C 238.003906 457.683594 238.296875 454.996094 238.296875 450.980469 L 238.296875 440.765625 L 233.765625 440.769531 L 233.765625 427.671875 L 260.003906 427.671875 L 260.003906 473.925781 L 245.90625 473.929688 L 243.835938 467.753906 C 242.308594 470.421875 240.382813 472.398438 238.054688 473.746094 C 235.730469 475.078125 232.988281 475.746094 229.824219 475.742188 C 226.0625 475.746094 222.546875 474.816406 219.269531 473.003906 C 215.980469 471.167969 213.488281 468.914063 211.785156 466.207031 C 210.074219 463.515625 209.019531 460.683594 208.589844 457.71875 C 208.171875 454.757813 207.949219 450.308594 207.949219 444.382813 L 207.945313 418.785156 C 207.949219 410.554688 208.382813 404.578125 209.277344 400.851563 C 210.164063 397.109375 212.710938 393.695313 216.925781 390.605469 C 221.121094 387.496094 226.554688 385.933594 233.238281 385.933594 C 239.796875 385.933594 245.253906 387.28125 249.574219 389.984375 C 253.898438 392.675781 256.734375 395.894531 258.046875 399.59375 C 259.351563 403.304688 260.003906 408.683594 260.003906 415.753906 Z M 325.179688 438.214844 C 325.179688 446.878906 324.984375 452.996094 324.585938 456.59375 C 324.164063 460.214844 322.894531 463.503906 320.753906 466.476563 C 318.605469 469.460938 315.695313 471.753906 312.046875 473.347656 C 308.394531 474.945313 304.128906 475.742188 299.273438 475.742188 C 294.65625 475.742188 290.511719 474.980469 286.847656 473.472656 C 283.15625 471.96875 280.214844 469.714844 277.980469 466.703125 C 275.742188 463.679688 274.421875 460.394531 273.984375 456.847656 C 273.5625 453.289063 273.34375 447.074219 273.34375 438.210938 L 273.34375 423.472656 C 273.34375 414.804688 273.546875 408.683594 273.964844 405.066406 C 274.363281 401.464844 275.636719 398.179688 277.796875 395.199219 C 279.941406 392.21875 282.835938 389.929688 286.503906 388.339844 C 290.152344 386.730469 294.402344 385.933594 299.273438 385.933594 C 303.890625 385.933594 308.03125 386.699219 311.699219 388.210938 C 315.371094 389.714844 318.335938 391.964844 320.570313 394.984375 C 322.804688 398.003906 324.128906 401.289063 324.546875 404.828125 C 324.984375 408.390625 325.183594 414.589844 325.183594 423.472656 L 325.183594 438.214844 Z M 302.78125 409.898438 C 302.78125 405.882813 302.5625 403.324219 302.109375 402.195313 C 301.671875 401.089844 300.761719 400.523438 299.382813 400.523438 C 298.203125 400.523438 297.3125 400.976563 296.691406 401.886719 C 296.058594 402.777344 295.753906 405.449219 295.753906 409.898438 L 295.746094 450.128906 C 295.746094 455.140625 295.964844 458.230469 296.367188 459.394531 C 296.765625 460.578125 297.726563 461.152344 299.21875 461.152344 C 300.742188 461.152344 301.714844 460.484375 302.140625 459.136719 C 302.5625 457.773438 302.78125 454.582031 302.78125 449.488281 Z M 338.839844 387.753906 L 354.695313 387.753906 C 365.273438 387.753906 372.429688 388.152344 376.171875 388.96875 C 379.914063 389.785156 382.964844 391.878906 385.328125 395.21875 C 387.695313 398.585938 388.878906 403.921875 388.878906 411.28125 C 388.871094 417.984375 388.035156 422.492188 386.367188 424.796875 C 384.714844 427.105469 381.421875 428.488281 376.515625 428.945313 C 380.953125 430.046875 383.949219 431.519531 385.476563 433.378906 C 386.984375 435.214844 387.945313 436.898438 388.308594 438.445313 C 388.691406 439.988281 388.878906 444.242188 388.878906 451.203125 L 388.878906 473.929688 L 368.066406 473.925781 L 368.070313 445.296875 C 368.066406 440.675781 367.691406 437.824219 366.964844 436.714844 C 366.234375 435.628906 364.328125 435.0625 361.257813 435.0625 L 361.253906 473.925781 L 338.839844 473.925781 Z M 361.257813 402.484375 L 361.257813 421.652344 C 363.761719 421.65625 365.527344 421.308594 366.546875 420.617188 C 367.5625 419.929688 368.070313 417.675781 368.066406 413.878906 L 368.066406 409.15625 C 368.066406 406.410156 367.578125 404.628906 366.601563 403.777344 C 365.613281 402.921875 363.839844 402.484375 361.257813 402.484375 Z M 441.535156 387.753906 L 454.363281 473.929688 L 431.414063 473.929688 L 430.304688 458.429688 L 422.257813 458.429688 L 420.933594 473.929688 L 397.730469 473.925781 L 409.121094 387.753906 Z M 429.671875 443.171875 C 428.527344 433.410156 427.398438 421.347656 426.257813 407.011719 C 423.984375 423.492188 422.566406 435.535156 422.003906 443.171875 Z M 510.964844 413.824219 L 490.164063 413.824219 L 490.160156 407.449219 C 490.164063 404.46875 489.890625 402.558594 489.359375 401.742188 C 488.839844 400.921875 487.945313 400.523438 486.691406 400.523438 C 485.347656 400.523438 484.328125 401.070313 483.640625 402.179688 C 482.949219 403.265625 482.605469 404.9375 482.605469 407.171875 C 482.605469 410.046875 482.984375 412.226563 483.769531 413.679688 C 484.511719 415.132813 486.636719 416.878906 490.109375 418.949219 C 500.085938 424.867188 506.351563 429.722656 508.949219 433.519531 C 511.546875 437.320313 512.839844 443.4375 512.839844 451.890625 C 512.839844 458.027344 512.113281 462.554688 510.671875 465.464844 C 509.242188 468.367188 506.464844 470.820313 502.351563 472.78125 C 498.230469 474.742188 493.449219 475.742188 487.980469 475.742188 C 481.984375 475.742188 476.859375 474.601563 472.628906 472.332031 C 468.378906 470.058594 465.597656 467.167969 464.289063 463.664063 C 462.980469 460.136719 462.328125 455.160156 462.328125 448.691406 L 462.328125 443.058594 L 483.128906 443.058594 L 483.132813 453.539063 C 483.128906 456.773438 483.421875 458.847656 484.003906 459.773438 C 484.601563 460.683594 485.636719 461.15625 487.128906 461.152344 C 488.617188 461.15625 489.726563 460.578125 490.453125 459.390625 C 491.179688 458.230469 491.546875 456.484375 491.546875 454.179688 C 491.546875 449.105469 490.851563 445.78125 489.46875 444.21875 C 488.054688 442.660156 484.546875 440.058594 478.988281 436.40625 C 473.40625 432.703125 469.722656 430.027344 467.90625 428.359375 C 466.101563 426.6875 464.601563 424.378906 463.414063 421.4375 C 462.214844 418.492188 461.640625 414.730469 461.636719 410.152344 C 461.636719 403.558594 462.472656 398.722656 464.160156 395.671875 C 465.835938 392.621094 468.558594 390.238281 472.320313 388.515625 C 476.085938 386.804688 480.628906 385.933594 485.949219 385.933594 C 491.777344 385.933594 496.738281 386.878906 500.828125 388.753906 C 504.933594 390.640625 507.640625 393.003906 508.988281 395.871094 C 510.3125 398.726563 510.96875 403.574219 510.964844 410.425781 Z M 510.964844 413.824219 "/>
</g>
<g clip-path="url(#clip2)" clip-rule="nonzero">
<path style=" stroke:none;fill-rule:evenodd;fill:rgb(10.594177%,9.812927%,9.423828%);fill-opacity:1;" d="M 73.71875 548.589844 L 73.71875 506.339844 L 102.6875 506.339844 L 102.6875 513.492188 L 82.253906 513.492188 L 82.253906 523.484375 L 99.894531 523.484375 L 99.894531 530.636719 L 82.257813 530.636719 L 82.253906 548.589844 Z M 145.644531 548.589844 L 136.359375 548.589844 L 132.671875 538.988281 L 115.777344 538.988281 L 112.296875 548.589844 L 103.246094 548.589844 L 119.703125 506.339844 L 128.722656 506.339844 Z M 129.933594 531.878906 L 124.109375 516.191406 L 118.40625 531.878906 Z M 178.277344 533.054688 L 186.546875 535.671875 C 185.273438 540.289063 183.171875 543.707031 180.214844 545.957031 C 177.273438 548.1875 173.527344 549.304688 168.992188 549.304688 C 163.386719 549.304688 158.769531 547.390625 155.160156 543.5625 C 151.550781 539.726563 149.742188 534.484375 149.738281 527.84375 C 149.742188 520.808594 151.5625 515.347656 155.191406 511.457031 C 158.820313 507.570313 163.59375 505.617188 169.515625 505.617188 C 174.679688 505.617188 178.878906 507.144531 182.105469 510.207031 C 184.035156 512.003906 185.46875 514.601563 186.433594 517.984375 L 177.984375 520.003906 C 177.492188 517.808594 176.449219 516.082031 174.859375 514.808594 C 173.269531 513.539063 171.34375 512.910156 169.085938 512.914063 C 165.953125 512.914063 163.40625 514.03125 161.460938 516.285156 C 159.507813 518.527344 158.535156 522.167969 158.539063 527.207031 C 158.535156 532.542969 159.488281 536.351563 161.421875 538.613281 C 163.339844 540.886719 165.835938 542.015625 168.902344 542.015625 C 171.175781 542.015625 173.121094 541.300781 174.757813 539.855469 C 176.386719 538.417969 177.558594 536.144531 178.277344 533.054688 Z M 194.886719 506.339844 L 203.414063 506.339844 L 203.414063 529.21875 C 203.414063 532.847656 203.523438 535.214844 203.730469 536.285156 C 204.097656 538.015625 204.972656 539.402344 206.339844 540.445313 C 207.71875 541.5 209.59375 542.015625 211.976563 542.019531 C 214.394531 542.015625 216.222656 541.527344 217.453125 540.53125 C 218.683594 539.546875 219.421875 538.332031 219.671875 536.894531 C 219.925781 535.445313 220.046875 533.054688 220.046875 529.714844 L 220.046875 506.339844 L 228.570313 506.339844 L 228.570313 528.53125 C 228.570313 533.605469 228.34375 537.191406 227.878906 539.285156 C 227.421875 541.378906 226.574219 543.140625 225.335938 544.585938 C 224.09375 546.023438 222.429688 547.175781 220.367188 548.027344 C 218.289063 548.882813 215.574219 549.304688 212.230469 549.304688 C 208.199219 549.304688 205.136719 548.84375 203.054688 547.914063 C 200.96875 546.976563 199.324219 545.765625 198.117188 544.277344 C 196.90625 542.796875 196.109375 541.230469 195.722656 539.597656 C 195.164063 537.179688 194.886719 533.609375 194.886719 528.878906 Z M 238.871094 548.589844 L 238.878906 506.679688 L 247.402344 506.683594 L 247.402344 541.46875 L 268.613281 541.46875 L 268.609375 548.589844 Z M 275.753906 506.339844 L 291.34375 506.339844 C 294.855469 506.339844 297.53125 506.605469 299.378906 507.144531 C 301.859375 507.878906 303.984375 509.171875 305.746094 511.039063 C 307.515625 512.898438 308.863281 515.183594 309.785156 517.878906 C 310.703125 520.585938 311.164063 523.90625 311.164063 527.871094 C 311.164063 531.347656 310.730469 534.34375 309.867188 536.863281 C 308.816406 539.933594 307.308594 542.421875 305.339844 544.320313 C 303.863281 545.761719 301.867188 546.890625 299.351563 547.691406 C 297.46875 548.292969 294.953125 548.589844 291.796875 548.589844 L 275.753906 548.589844 Z M 284.277344 513.492188 L 284.277344 541.464844 L 290.644531 541.464844 C 293.027344 541.46875 294.753906 541.339844 295.808594 541.0625 C 297.183594 540.71875 298.339844 540.140625 299.253906 539.308594 C 300.164063 538.484375 300.902344 537.117188 301.484375 535.230469 C 302.054688 533.339844 302.351563 530.753906 302.351563 527.488281 C 302.351563 524.222656 302.054688 521.722656 301.480469 519.972656 C 300.902344 518.222656 300.097656 516.851563 299.066406 515.882813 C 298.019531 514.898438 296.703125 514.238281 295.105469 513.890625 C 293.921875 513.621094 291.589844 513.492188 288.105469 513.492188 Z M 357.578125 548.589844 L 348.296875 548.585938 L 344.601563 538.988281 L 327.714844 538.988281 L 324.230469 548.589844 L 315.183594 548.585938 L 331.640625 506.339844 L 340.660156 506.339844 Z M 341.871094 531.878906 L 336.046875 516.191406 L 330.34375 531.878906 Z M 363.152344 506.339844 L 378.742188 506.339844 C 382.253906 506.339844 384.929688 506.601563 386.78125 507.144531 C 389.261719 507.871094 391.382813 509.171875 393.144531 511.042969 C 394.921875 512.898438 396.261719 515.183594 397.1875 517.878906 C 398.105469 520.585938 398.566406 523.90625 398.566406 527.871094 C 398.566406 531.34375 398.132813 534.34375 397.269531 536.863281 C 396.214844 539.933594 394.714844 542.421875 392.742188 544.320313 C 391.265625 545.765625 389.269531 546.886719 386.753906 547.691406 C 384.878906 548.292969 382.355469 548.589844 379.199219 548.589844 L 363.152344 548.589844 Z M 371.679688 513.492188 L 371.679688 541.46875 L 378.046875 541.464844 C 380.425781 541.464844 382.148438 541.339844 383.214844 541.0625 C 384.589844 540.722656 385.738281 540.140625 386.652344 539.3125 C 387.566406 538.484375 388.304688 537.117188 388.882813 535.226563 C 389.460938 533.34375 389.753906 530.753906 389.753906 527.488281 C 389.753906 524.222656 389.460938 521.726563 388.886719 519.972656 C 388.304688 518.222656 387.503906 516.851563 386.46875 515.882813 C 385.421875 514.898438 384.105469 514.238281 382.511719 513.890625 C 381.324219 513.617188 378.988281 513.488281 375.507813 513.492188 Z M 406.882813 548.589844 L 406.882813 506.339844 L 438.203125 506.339844 L 438.203125 513.492188 L 415.410156 513.492188 L 415.410156 522.855469 L 436.621094 522.855469 L 436.621094 529.964844 L 415.414063 529.964844 L 415.410156 541.464844 L 439.011719 541.46875 L 439.011719 548.589844 Z M 406.882813 548.589844 "/>
</g>
</g>
</svg>
